# xmcd
#
# Track frame offsets: 
#        150
#        17231
#        35306
#        46174
#        62026
#        82943
#        109667
#        128020
#
# Disc length: 1921 seconds
#
# Revision: 0
# Processed by: cddbd v1.5.2PL0 Copyright (c) Steve Scherf et al.
# Submitted via: ExactAudioCopy v0.95b4
#
DISCID=59077f08
DTITLE=Jimmi Mayes - Messin' With The Kid
DYEAR=2004
DGENRE=Blues
TTITLE0=Messin' With The Kid
TTITLE1=Love Trap
TTITLE2=Pluckin'
TTITLE3=Open The Door To Your Heart
TTITLE4=Something About You
TTITLE5=Substitute For You
TTITLE6=All Of A Sudden
TTITLE7=I Need To See You
EXTD=
EXTT0=
EXTT1=
EXTT2=
EXTT3=
EXTT4=
EXTT5=
EXTT6=
EXTT7=
PLAYORDER=
